# xmcd
#
# Track frame offsets: 
#        187
#        19075
#        37457
#        53300
#        73782
#        88545
#        111927
#        128805
#        144355
#        157590
#        173947
#
# Disc length: 2554 seconds
#
# Revision: 2
# Processed by: cddbd v1.5.1PL0 Copyright (c) Steve Scherf et al.
# Submitted via: ExactAudioCopy v0.95a5
#
DISCID=8c09f80b
DTITLE=Michael Penn - March
DYEAR=1989
DGENRE=Pop
TTITLE0=No Myth
TTITLE1=Half Harvest
TTITLE2=This and That
TTITLE3=Brave New World
TTITLE4=Innocent One
TTITLE5=Disney's A Snow Cone - Bedlam Boys
TTITLE6=Invisible
TTITLE7=Cupid's Got a Brand New Gun
TTITLE8=Big House
TTITLE9=Battle Room
TTITLE10=Evenfall
EXTD=
EXTT0=
EXTT1=
EXTT2=
EXTT3=
EXTT4=
EXTT5=
EXTT6=
EXTT7=
EXTT8=
EXTT9=
EXTT10=
PLAYORDER=
